<svg xmlns="http://www.w3.org/2000/svg" viewBox="0 0 32 32" width="64" height="64">
  <defs>
    <linearGradient id="subtenLogo" x1="0" y1="0" x2="1" y2="1">
      <stop offset="0" stop-color="#5FE39A"></stop>
      <stop offset="1" stop-color="#2FBE6E"></stop>
    </linearGradient>
  </defs>
  <rect x="1" y="1" width="30" height="30" rx="9" fill="url(#subtenLogo)"></rect>
  <path d="M21.5 11.2c-1-1.4-2.7-2.3-4.8-2.3-3 0-5.2 1.7-5.2 4.2 0 2.4 1.9 3.4 4.6 4 2 .5 2.8.9 2.8 1.8 0 .9-1 1.5-2.4 1.5-1.6 0-2.8-.7-3.6-1.9l-2.6 1.7c1.1 1.8 3.2 2.9 6 2.9 3.3 0 5.6-1.7 5.6-4.4 0-2.6-2-3.6-4.8-4.2-1.9-.4-2.6-.8-2.6-1.6 0-.8.8-1.3 2-1.3 1.3 0 2.3.6 3 1.6z" fill="#fff"></path>
</svg>